<?xml version="1.0" encoding="utf-8"?>
<!-- Generator: Adobe Illustrator 25.2.3, SVG Export Plug-In . SVG Version: 6.00 Build 0)  -->
<svg version="1.1" xmlns="http://www.w3.org/2000/svg" xmlns:xlink="http://www.w3.org/1999/xlink" x="0px" y="0px"
	 viewBox="0 0 960 480" style="enable-background:new 0 0 960 480;" xml:space="preserve">
<g id="Ebene_2_xA0_Bild_1_">
	<g>
		<path style="fill:#FFFFFF;" d="M68.9,209.9c0.6-0.1,1.2-0.2,1.8-0.2c5.2,0,10.4,0,15.6,0c2.7,0,3.6-0.9,3.6-3.6c0-21,0-42,0-63
			c0-0.7,0.2-1.4,0.3-2.2c0.1,0,0.3,0,0.4-0.1c0.2,0.3,0.4,0.6,0.5,0.9c1.3,4.8,2.6,9.6,3.9,14.4c1.8,6.6,3.5,13.3,5.3,20
			c1.8,6.7,3.6,13.5,5.3,20.2c1.1,4.1,2.2,8.1,3.3,12.2c0.2,0.7,0.6,1.1,1.5,1.1c7.8,0,15.6,0,23.4,0c0.7,0,0.9-0.4,1.1-0.9
			c1.8-7.3,3.7-14.5,5.5-21.8c2.2-8.8,4.5-17.5,6.8-26.3c1.6-6.1,3.1-12.2,4.6-18.3c0.1-0.3,0.4-0.6,0.6-0.9
			c0.2,0.4,0.5,0.7,0.5,1.1c0,7.2,0,14.3,0,21.5c0,14.1,0,28.3,0,42.4c0,1.9,1.3,3.2,3.2,3.2c6.6,0,13.3,0,19.9,0c0.4,0,0.7,0,1.1,0
			c0.1,0.1,0.1,0.2,0.2,0.3c-0.7,0.8-1.3,1.6-2,2.3c-4.4,4.3-7.1,9.5-8.2,15.5c-1.3,7.4,0.3,14.2,4.7,20.4c4,5.7,9.5,9.3,15.8,11.9
			c5.8,2.4,11.7,4.2,17.8,5.4c3.8,0.7,7.5,1.6,11.3,2.3c3.6,0.7,7.3,1.1,10.9,1.7c4.3,0.7,8.6,1.5,12.8,2.3c1.8,0.4,3.5,1,5.1,1.7
			c1,0.4,1.9,1.2,2.7,2c1,1.1,1,2.6-0.3,3.4c-1.3,0.8-2.8,1.6-4.3,1.9c-2.4,0.5-5,0.7-7.5,1c-1.7,0.2-3.5,0.3-5.2,0.2
			c-5.4-0.3-10.6-1-15.6-3.2c-4.2-1.9-7.2-5-8.9-9.3c-0.4-0.9-0.8-1.2-1.9-1c-2.4,0.5-4.8,0.6-7.3,1c-2.6,0.3-5.2,0.7-7.8,1
			c-1.8,0.2-3.6,0.4-5.5,0.7c-2.6,0.3-5.1,0.7-7.7,1.1c-1.8,0.2-3.6,0.4-5.4,0.6c-1.9,0.2-3.7,0.4-5.6,0.7c-1,0.1-2.1,0.3-3.1,0.4
			c-2,0.2-3.5,2.3-2.8,4.2c1.7,4.2,4,8.1,6.9,11.7c2.8,3.4,6.1,6.4,9.7,9c5.2,3.6,10.9,6.2,16.9,8c4,1.2,8.1,2.1,12.2,3.2
			c0.3,0.1,0.5,0.4,0.8,0.6c-0.3,0.2-0.5,0.5-0.8,0.5c-2.7,0.6-5.4,1.1-8.2,1.6c-1.7,0.3-3.4,0.5-5.1,0.7
			c-13.6,1.2-27.3,0.3-40.9,0.5c-13.7,0.2-27.4,0-41.1,0c-13.7,0-27.3,0-41,0C68.9,279.4,68.9,244.7,68.9,209.9z"/>
		<path style="fill:#FFFFFF;" d="M290.3,92.4c0,40.2,0,80.4,0,120.9c-0.5-0.3-0.8-0.4-1-0.6c-7.6-7.6-16.9-12.2-27.2-14.7
			c-4-1-8.1-1.7-12.3-2.3c-4-0.5-8.1-0.7-12.2-1c-2.7-0.2-5.4-0.3-8-0.2c-4.1,0.2-8.3,0.4-12.4,0.8c-3.4,0.3-6.8,0.7-10.1,1.4
			c-4.1,0.9-8,2.2-12,3.3c-1.8,0.5-3.6,1.2-5.5,1.8c0-0.5-0.1-0.9-0.1-1.2c0-35.3,0-70.6,0-105.9c0-0.8,0-1.7,0.1-2.5
			C223.2,92.4,256.7,92.4,290.3,92.4z M250,161.5c-2.4-0.2-4.7-0.4-6.9-0.6c-1.2-0.1-2.5-0.1-3.7-0.4c-1-0.3-1.2,0-1.5,0.8
			c-0.8,1.7-1.7,3.3-2.6,4.9c-0.4,0.6-0.9,0.7-1.5,0.1c-1-1-2.1-1.9-3.1-2.8c-0.3-0.3-0.6-0.6-0.9-0.8c0.3-0.2,0.7-0.4,1-0.6
			c0.4-0.2,0.8-0.3,1.2-0.5c4.1-1.9,6.9-4.6,6.3-9.6c-0.2-2.2-1.3-3.9-3.1-5.2c-2.4-1.7-5.3-2.5-8.2-2.7c-4-0.3-8-0.2-11.9,1.1
			c-7,2.4-8.4,9.1-4.1,14.1c0.4,0.5,0.7,1,1.2,1.6c-0.3,0.1-0.5,0.2-0.7,0.3c-1.9,0.8-3.8,1.5-5.6,2.5c-4,2.3-5.4,6.7-3.9,11
			c1.2,3.2,3.7,4.9,6.6,6.2c4.4,1.8,8.9,2.3,13.6,2c3.9-0.2,7.6-0.8,10.9-2.9c0.2-0.1,0.7-0.1,1,0.1c4.2,2.4,8.6,3.2,13.3,2.4
			c2.5-0.4,2.5-0.4,2.5-2.9c0-1.7,0-3.5,0-5.2c-1.5,0-2.8,0.1-4.1,0c-0.9-0.1-1.8-0.3-2.7-0.6c-0.8-0.2-0.8-0.7-0.1-1.2
			c0.7-0.5,1.3-1,1.9-1.6C247.4,168.3,248.9,165.1,250,161.5z"/>
		<path style="fill:#FFFFFF;" d="M282.6,245.3c-5.9-3.1-12.1-4.7-18.3-6.1c-3.2-0.7-6.4-1.2-9.6-1.8c-2.9-0.5-5.8-1.1-8.7-1.6
			c-3.1-0.5-6.1-1-9.2-1.5c-3-0.5-5.9-1.1-8.8-1.6c-2-0.4-3.9-0.7-5.8-1.2c-1-0.3-2-0.8-2.9-1.3c-2.2-1.3-2.2-3.7,0-5
			c2.2-1.3,4.7-1.8,7.1-2c2.4-0.2,4.8-0.3,7.1-0.2c5,0.3,9.8,1.2,14.2,3.7c2.6,1.5,4.6,3.5,6,6.1c0.6,1,1.1,1.4,2.4,1.1
			c4.5-1.1,9.1-1.9,13.6-2.9c5.5-1.2,11-2.4,16.5-3.7c0.4-0.1,0.8-0.1,1.2-0.1c0.7,0.1,1,0.3,0.7,1.1c-1.7,5.3-3.3,10.6-5,16
			C283,244.6,282.8,244.9,282.6,245.3z"/>
		<path style="fill:#FFFFFF;" d="M136.3,100.8c-1,4.1-2,7.9-3,11.7c-1,4-2.1,7.9-3.1,11.9c-1.6,6.1-3.1,12.2-4.6,18.2c0,0.2-0.1,0.4-0.2,0.5
			c-0.2,0.3-0.4,0.5-0.6,0.7c-0.2-0.2-0.5-0.4-0.6-0.7c-0.7-2.4-1.3-4.8-2-7.2c-2-7.4-3.9-14.7-5.9-22.1c-0.5-1.7-0.2-2.4,1.2-3.4
			c5.3-3.7,11-6.7,17-9.4C135,100.8,135.5,100.9,136.3,100.8z"/>
		<path style="fill:#FFFFFF;" d="M226.4,173.7c-1,0.4-2,0.9-3.1,1.2c-2.1,0.5-4.1,0.5-6.1-0.5c-1.8-0.9-2.5-2.4-2.3-4.6
			c0.1-1.3,1.6-2.9,3.1-3.2c0.2-0.1,0.6,0,0.8,0.2c1.3,1.1,2.5,2.2,3.7,3.4c1.2,1.1,2.5,2.2,3.8,3.2
			C226.4,173.4,226.4,173.5,226.4,173.7z"/>
		<path style="fill:#FFFFFF;" d="M227.7,153.4c0.1,1.6-1.8,3.6-3.4,3.7c-0.2,0-0.5-0.1-0.6-0.2c-0.9-0.8-1.9-1.5-2.6-2.5
			c-0.4-0.5-0.6-1.3-0.5-1.9c0.3-1.4,2.3-2.4,3.8-2.2C226.2,150.6,227.6,151.9,227.7,153.4z"/>
	</g>
	<polygon style="fill:#F39200;" points="891.2,389.4 68.9,376.7 878.3,377.2 878.3,92.4 	"/>
</g>
<g id="Avocats_à_la_Cour__x2502__Rechtsanwälte__x2502__Solicitors__x2502__Barristers_1_" class="st2">
	<g id="Avocats_à_la_Cour__x2502__Rechtsanwälte__x2502__Solicitors__x2502__Barristers_2_">
		<g>
			<path style="fill:#F39200;" d="M74.7,336.4l-5.9,19.4l3.9,0l1-4l5.5,0l1,4l4.4,0L79,336.4L74.7,336.4z M74.5,348.4l1.9-8l2,8L74.5,348.4z
				 M91.1,351.2l-3-14.8l-4.5,0l4.7,19.4l4.8,0.1l4.8-19.5l-3.7,0L91.1,351.2z M105.7,336c-4.7,0-7.1,3.3-7.1,10
				c0,3.3,0.6,5.8,1.8,7.5c1.2,1.7,3,2.6,5.3,2.6c4.7,0,7.1-3.3,7.1-10c0-3.3-0.6-5.8-1.8-7.5C109.8,336.9,108,336,105.7,336z
				 M107.7,351.3c-0.4,0.9-1.1,1.3-2,1.3c-0.9,0-1.5-0.4-2-1.4c-0.4-0.9-0.6-2.6-0.6-5.2c0-2.6,0.2-4.3,0.6-5.2
				c0.4-0.9,1.1-1.3,1.9-1.3c0.9,0,1.5,0.4,2,1.3c0.4,0.9,0.6,2.6,0.6,5.2C108.3,348.7,108.1,350.4,107.7,351.3z M122.6,352.6
				c-1,0-1.7-0.4-2.2-1.3c-0.5-0.9-0.7-2.5-0.7-4.9c0-2.7,0.3-4.5,0.8-5.4c0.5-0.9,1.2-1.4,2.1-1.4c1.7,0,2.6,1.4,2.7,4.3l3.9-0.3
				c-0.4-5-2.6-7.5-6.7-7.5c-2.5,0-4.3,0.9-5.6,2.7c-1.2,1.8-1.9,4.2-1.9,7.4c0,3.1,0.6,5.6,1.9,7.3c1.3,1.8,3.1,2.7,5.5,2.7
				c2,0,3.6-0.7,4.8-2c1.2-1.3,1.9-3,2-5.1l-4-0.2C125,351.3,124.1,352.6,122.6,352.6z M135.5,336.3l-5.9,19.4l3.9,0l1-4l5.5,0l1,4
				l4.4,0l-5.6-19.4L135.5,336.3z M135.3,348.4l1.9-8l2,8L135.3,348.4z M156.4,336.3l-12.2,0l0,3.6l3.9,0l0,15.8l4.3,0l0-15.8l4,0
				L156.4,336.3z M168.4,345.2c-0.7-0.5-1.7-0.9-3-1.4c-1.4-0.5-2.3-1-2.7-1.3c-0.4-0.3-0.7-0.8-0.7-1.3c0-0.5,0.2-0.9,0.6-1.2
				c0.4-0.4,0.9-0.5,1.5-0.5c1.3,0,2.3,0.8,2.8,2.4l3.5-1.4c-0.8-3-3-4.5-6.4-4.5c-1.9,0-3.4,0.6-4.5,1.7c-1.1,1.1-1.7,2.5-1.7,4.3
				c0,1,0.2,1.9,0.7,2.7c0.5,0.8,1.1,1.4,1.8,1.8c0.7,0.4,1.9,0.9,3.3,1.4c1.2,0.4,1.9,0.8,2.2,1.2c0.3,0.4,0.5,0.8,0.5,1.3
				c0,0.6-0.2,1.1-0.7,1.5c-0.5,0.4-1.1,0.6-1.8,0.6c-1.6,0-2.7-1-3.1-2.9l-3.7,1.1c1,3.6,3.2,5.3,6.8,5.3c2.1,0,3.8-0.6,5-1.7
				c1.3-1.2,1.9-2.6,1.9-4.5c0-1-0.2-1.9-0.7-2.7C169.7,346.3,169.1,345.7,168.4,345.2z M186.9,333.9l-4.9-4.5l-1.6,2.4l5.3,3.3
				L186.9,333.9z M182.4,336.3l-5.9,19.4l3.9,0l1-4l5.5,0l1,4l4.4,0l-5.6-19.4L182.4,336.3z M182.3,348.4l1.9-8l2,8L182.3,348.4z
				 M215.3,336.3L210,354l0-1.9l-6.3,0l0-15.8l-4.3,0l0,19.4l10.6,0l3.4,0l1-4l5.5,0l1,4l4.4,0l-5.6-19.4L215.3,336.3z M215.2,348.4
				l1.9-8l2,8L215.2,348.4z M239,352.5c-1,0-1.7-0.4-2.2-1.3c-0.5-0.9-0.7-2.5-0.7-4.9c0-2.7,0.3-4.5,0.8-5.4
				c0.5-0.9,1.2-1.4,2.1-1.4c1.7,0,2.6,1.4,2.7,4.3l3.9-0.3c-0.4-5-2.6-7.5-6.7-7.5c-2.5,0-4.3,0.9-5.6,2.7
				c-1.2,1.8-1.9,4.2-1.9,7.4c0,3.1,0.6,5.6,1.9,7.3c1.3,1.8,3.1,2.7,5.5,2.7c2,0,3.6-0.7,4.8-2s1.9-3,2-5.1l-4-0.2
				C241.5,351.2,240.6,352.5,239,352.5z M254.7,336c-4.7,0-7.1,3.3-7.1,10c0,3.3,0.6,5.8,1.8,7.5c1.2,1.7,3,2.6,5.3,2.6
				c4.7,0,7.1-3.3,7.1-10c0-3.3-0.6-5.8-1.8-7.5C258.7,336.8,257,336,254.7,336z M256.6,351.2c-0.4,0.9-1.1,1.3-2,1.3
				c-0.9,0-1.5-0.4-2-1.4c-0.4-0.9-0.6-2.6-0.6-5.2c0-2.6,0.2-4.3,0.6-5.2c0.4-0.9,1.1-1.3,1.9-1.3c0.9,0,1.5,0.4,2,1.3
				c0.4,0.9,0.6,2.6,0.6,5.2C257.2,348.6,257,350.3,256.6,351.2z M274.4,336.2l0,11.1c0,1.6,0,2.7-0.1,3.2c-0.1,0.6-0.4,1-0.8,1.4
				c-0.4,0.4-1,0.5-1.7,0.5c-0.7,0-1.2-0.2-1.7-0.5c-0.5-0.3-0.8-0.8-0.9-1.4c-0.1-0.6-0.2-1.7-0.2-3.3l0-11.1l-4.3,0l0,11.1
				c0,2.6,0.2,4.4,0.6,5.4c0.4,1,1.1,1.8,2.1,2.4c1,0.6,2.3,0.8,4,0.8c1.8,0,3.2-0.4,4.3-1.2c1-0.8,1.7-1.7,1.9-2.8
				c0.3-1.1,0.4-2.7,0.4-4.9l0-10.9L274.4,336.2z M294.6,342c0-1-0.2-2-0.6-2.8c-0.4-0.8-0.9-1.5-1.5-2c-0.6-0.5-1.3-0.8-1.9-0.9
				c-0.6-0.1-1.5-0.2-2.7-0.2l-6.1,0l0,19.4l4.3,0l0-7.7l2.1,0l2.6,7.7l4.7,0l-3.6-8.5C293.7,346.2,294.6,344.5,294.6,342z
				 M287.9,344.8l-1.9,0l0-5.4l1.7,0c0.6,0,1.1,0.1,1.5,0.2c0.3,0.1,0.6,0.4,0.9,0.8c0.2,0.4,0.4,0.9,0.4,1.6
				C290.4,343.9,289.6,344.8,287.9,344.8z M309.2,332.9l0,30.3l2.1,0l0-30.3L309.2,332.9z M339.4,342c0-1-0.2-2-0.6-2.8
				c-0.4-0.8-0.9-1.5-1.5-2c-0.6-0.5-1.3-0.8-1.9-0.9c-0.6-0.1-1.5-0.2-2.7-0.2l-6.1,0l0,19.4l4.3,0l0-7.7l2.1,0l2.6,7.7l4.7,0
				l-3.6-8.5C338.5,346.1,339.4,344.4,339.4,342z M332.7,344.8l-1.9,0l0-5.4l1.7,0c0.6,0,1.1,0.1,1.5,0.2c0.3,0.1,0.6,0.4,0.9,0.8
				c0.2,0.4,0.4,0.9,0.4,1.6C335.2,343.9,334.4,344.8,332.7,344.8z M346.8,352.2l0-4.8l5.9,0l0-3.3l-5.9,0l0-4.5l7.6,0l0-3.3
				l-11.9,0l0,19.4l11.9,0l0-3.5L346.8,352.2z M363.2,352.4c-1,0-1.7-0.4-2.2-1.3c-0.5-0.9-0.7-2.5-0.7-4.9c0-2.7,0.3-4.5,0.8-5.4
				c0.5-0.9,1.2-1.4,2.1-1.4c1.7,0,2.6,1.4,2.7,4.3l3.9-0.3c-0.4-5-2.6-7.5-6.7-7.5c-2.5,0-4.3,0.9-5.6,2.7
				c-1.2,1.8-1.9,4.2-1.9,7.4c0,3.1,0.6,5.6,1.9,7.3c1.3,1.8,3.1,2.7,5.5,2.7c2,0,3.6-0.7,4.8-2s1.9-3,2-5.1l-4-0.2
				C365.7,351.1,364.8,352.4,363.2,352.4z M381.4,336.2l0,7.8l-4.7,0l0-7.8l-4.3,0l0,19.4l4.3,0l0-7.9l4.7,0l0,7.9l4.3,0l0-19.4
				L381.4,336.2z M399.4,336.2l-12.2,0l0,3.6l3.9,0l0,15.8l4.3,0l0-15.8l4,0L399.4,336.2z M411.3,345.1c-0.7-0.5-1.7-0.9-3-1.4
				c-1.4-0.5-2.3-1-2.7-1.3c-0.4-0.3-0.7-0.8-0.7-1.3c0-0.5,0.2-0.9,0.6-1.2c0.4-0.4,0.9-0.5,1.5-0.5c1.3,0,2.3,0.8,2.8,2.4l3.5-1.4
				c-0.8-3-3-4.5-6.4-4.5c-1.9,0-3.4,0.6-4.5,1.7c-1.1,1.1-1.7,2.5-1.7,4.3c0,1,0.2,1.9,0.7,2.7c0.5,0.8,1.1,1.4,1.8,1.8
				c0.7,0.4,1.9,0.9,3.3,1.4c1.2,0.4,1.9,0.8,2.2,1.2c0.3,0.4,0.5,0.8,0.5,1.3c0,0.6-0.2,1.1-0.7,1.5c-0.5,0.4-1.1,0.6-1.8,0.6
				c-1.6,0-2.7-1-3.1-2.9l-3.7,1.1c1,3.6,3.2,5.3,6.8,5.3c2.1,0,3.8-0.6,5-1.7c1.3-1.2,1.9-2.6,1.9-4.5c0-1-0.2-1.9-0.7-2.7
				C412.7,346.2,412.1,345.6,411.3,345.1z M420.2,336.2l-5.9,19.4l3.9,0l1-4l5.5,0l1,4l4.4,0l-5.6-19.4L420.2,336.2z M420,348.2
				l1.9-8l2,8L420,348.2z M441.3,336.1l0,12.1l-5-12.1l-4.8,0l0,19.4l3.3,0l0-14.1l6,14.1l3.8,0l0-19.4L441.3,336.1z M463.9,336.1
				l-2.4,13.5l-2.4-13.5l-3.9,0l-2.6,13.4l-2.1-13.4l-4.4,0l4.2,19.5l3.8,0l2.7-13.5l2.6,13.5l3.8,0l4.2-19.5L463.9,336.1z
				 M477.1,334.3c0.4,0,0.8-0.1,1.1-0.4c0.3-0.3,0.5-0.6,0.5-1.1c0-0.4-0.2-0.8-0.5-1.1c-0.3-0.3-0.7-0.4-1.2-0.4
				c-0.4,0-0.8,0.1-1.2,0.4c-0.3,0.3-0.5,0.7-0.5,1.1c0,0.4,0.2,0.8,0.5,1.1C476.3,334.1,476.7,334.3,477.1,334.3z M471.1,333.9
				c0.3,0.3,0.7,0.4,1.1,0.4c0.4,0,0.8-0.1,1.1-0.4c0.3-0.3,0.5-0.6,0.5-1.1c0-0.4-0.2-0.8-0.5-1.1c-0.3-0.3-0.7-0.4-1.2-0.4
				c-0.4,0-0.8,0.1-1.2,0.4c-0.3,0.3-0.5,0.7-0.5,1.1C470.6,333.2,470.8,333.6,471.1,333.9z M472.6,336.1l-5.9,19.4l3.9,0l1-4l5.5,0
				l1,4l4.4,0l-5.6-19.4L472.6,336.1z M472.4,348.2l1.9-8l2,8L472.4,348.2z M488.4,351.9l0-15.8l-4.3,0l0,19.4l10.6,0l0-3.6
				L488.4,351.9z M505.9,336.1l-12.2,0l0,3.6l3.9,0l0,15.8l4.3,0l0-15.8l4,0L505.9,336.1z M511.7,352.1l0-4.8l5.9,0l0-3.3l-5.9,0
				l0-4.5l7.6,0l0-3.3l-11.9,0l0,19.4l11.9,0l0-3.5L511.7,352.1z M532.9,332.8l0,30.3l2.1,0l0-30.3L532.9,332.8z M560.1,345
				c-0.7-0.5-1.7-0.9-3-1.4c-1.4-0.5-2.3-1-2.7-1.3c-0.4-0.3-0.7-0.8-0.7-1.3c0-0.5,0.2-0.9,0.6-1.2c0.4-0.4,0.9-0.5,1.5-0.5
				c1.3,0,2.3,0.8,2.8,2.4l3.5-1.4c-0.8-3-3-4.5-6.4-4.5c-1.9,0-3.4,0.6-4.5,1.7c-1.1,1.1-1.7,2.5-1.7,4.3c0,1,0.2,1.9,0.7,2.7
				c0.5,0.8,1.1,1.4,1.8,1.8c0.7,0.4,1.9,0.9,3.3,1.4c1.2,0.4,1.9,0.8,2.2,1.2c0.3,0.4,0.5,0.8,0.5,1.3c0,0.6-0.2,1.1-0.7,1.5
				c-0.5,0.4-1.1,0.6-1.8,0.6c-1.6,0-2.7-1-3.1-2.9l-3.7,1.1c1,3.6,3.2,5.3,6.8,5.3c2.1,0,3.8-0.6,5-1.7c1.3-1.2,1.9-2.6,1.9-4.5
				c0-1-0.2-1.9-0.7-2.7C561.4,346.1,560.9,345.5,560.1,345z M571.6,335.8c-4.7,0-7.1,3.3-7.1,10c0,3.3,0.6,5.8,1.8,7.5
				c1.2,1.7,3,2.6,5.3,2.6c4.7,0,7.1-3.3,7.1-10c0-3.3-0.6-5.8-1.8-7.5C575.6,336.6,573.9,335.8,571.6,335.8z M573.5,351
				c-0.4,0.9-1.1,1.3-2,1.3c-0.9,0-1.5-0.4-2-1.4c-0.4-0.9-0.6-2.6-0.6-5.2c0-2.6,0.2-4.3,0.6-5.2c0.4-0.9,1.1-1.3,1.9-1.3
				c0.9,0,1.5,0.4,2,1.3c0.4,0.9,0.6,2.6,0.6,5.2C574.2,348.4,574,350.2,573.5,351z M586,351.8l0-15.8l-4.3,0l0,19.4l10.6,0l0-3.6
				L586,351.8z M594.1,336.1l0,19.4l4.3,0l0-19.4L594.1,336.1z M608.9,352.3c-1,0-1.7-0.4-2.2-1.3c-0.5-0.9-0.7-2.5-0.7-4.9
				c0-2.7,0.3-4.5,0.8-5.4c0.5-0.9,1.2-1.4,2.1-1.4c1.7,0,2.6,1.4,2.7,4.3l3.9-0.3c-0.4-5-2.6-7.5-6.7-7.5c-2.5,0-4.3,0.9-5.6,2.7
				c-1.2,1.8-1.9,4.2-1.9,7.4c0,3.1,0.6,5.6,1.9,7.3c1.3,1.8,3.1,2.7,5.5,2.7c2,0,3.6-0.7,4.8-2c1.2-1.3,1.9-3,2-5.1l-4-0.2
				C611.4,351,610.4,352.3,608.9,352.3z M618.1,336l0,19.4l4.3,0l0-19.4L618.1,336z M636.1,336l-12.2,0l0,3.6l3.9,0l0,15.8l4.3,0
				l0-15.8l4,0L636.1,336z M644.2,335.7c-4.7,0-7.1,3.3-7.1,10c0,3.3,0.6,5.8,1.8,7.5c1.2,1.7,3,2.6,5.3,2.6c4.7,0,7.1-3.3,7.1-10
				c0-3.3-0.6-5.8-1.8-7.5C648.3,336.6,646.5,335.7,644.2,335.7z M646.2,351c-0.4,0.9-1.1,1.3-2,1.3c-0.9,0-1.5-0.4-2-1.4
				c-0.4-0.9-0.6-2.6-0.6-5.2c0-2.6,0.2-4.3,0.6-5.2c0.4-0.9,1.1-1.3,1.9-1.3c0.9,0,1.5,0.4,2,1.3c0.4,0.9,0.6,2.6,0.6,5.2
				C646.8,348.4,646.6,350.1,646.2,351z M667.2,341.8c0-1-0.2-2-0.6-2.8c-0.4-0.8-0.9-1.5-1.5-2c-0.6-0.5-1.3-0.8-1.9-0.9
				c-0.6-0.1-1.5-0.2-2.7-0.2l-6.1,0l0,19.4l4.3,0l0-7.7l2.1,0l2.6,7.7l4.7,0l-3.6-8.5C666.3,346,667.2,344.2,667.2,341.8z
				 M660.5,344.6l-1.9,0l0-5.4l1.7,0c0.6,0,1.1,0.1,1.5,0.2c0.3,0.1,0.6,0.4,0.9,0.8c0.2,0.4,0.4,0.9,0.4,1.6
				C663,343.7,662.2,344.6,660.5,344.6z M680.2,344.9c-0.7-0.5-1.7-0.9-3-1.4c-1.4-0.5-2.3-1-2.7-1.3c-0.4-0.3-0.7-0.8-0.7-1.3
				c0-0.5,0.2-0.9,0.6-1.2c0.4-0.4,0.9-0.5,1.5-0.5c1.3,0,2.3,0.8,2.8,2.4l3.5-1.4c-0.8-3-3-4.5-6.4-4.5c-1.9,0-3.4,0.6-4.5,1.7
				c-1.1,1.1-1.7,2.5-1.7,4.3c0,1,0.2,1.9,0.7,2.7c0.5,0.8,1.1,1.4,1.8,1.8c0.7,0.4,1.9,0.9,3.3,1.4c1.2,0.4,1.9,0.8,2.2,1.2
				c0.3,0.4,0.5,0.8,0.5,1.3c0,0.6-0.2,1.1-0.7,1.5c-0.5,0.4-1.1,0.6-1.8,0.6c-1.6,0-2.7-1-3.1-2.9l-3.7,1.1c1,3.6,3.2,5.3,6.8,5.3
				c2.1,0,3.8-0.6,5-1.7c1.3-1.2,1.9-2.6,1.9-4.5c0-1-0.2-1.9-0.7-2.7C681.5,346,680.9,345.4,680.2,344.9z M696.7,332.7l0,30.3
				l2.1,0l0-30.3L696.7,332.7z M724.3,345.3c1.9-0.6,2.8-2,2.8-4.2c0-1.2-0.3-2.3-0.8-3.1c-0.5-0.8-1.2-1.4-2-1.6
				c-0.8-0.2-2-0.4-3.5-0.4l-6.7,0l0,19.4l6.7,0c1.6,0,2.9-0.1,3.8-0.4c0.9-0.3,1.6-0.9,2.2-1.7c0.6-0.9,0.9-1.9,0.9-3.2
				C727.6,347.6,726.5,346,724.3,345.3z M718.2,339.1l1.7,0c1.2,0,1.9,0.2,2.3,0.7c0.4,0.5,0.5,1,0.5,1.6c0,0.6-0.2,1.2-0.5,1.7
				c-0.4,0.5-1.2,0.7-2.6,0.7l-1.4,0L718.2,339.1z M720.3,352.1l-2.1,0l0-5.1l2.1,0c1,0,1.7,0.2,2.2,0.6c0.5,0.4,0.7,1,0.7,2
				C723.3,351.2,722.3,352.1,720.3,352.1z M734,336l-5.9,19.4l3.9,0l1-4l5.5,0l1,4l4.4,0l-5.6-19.4L734,336z M733.9,348.1l1.9-8l2,8
				L733.9,348.1z M758.4,341.8c0-1-0.2-2-0.6-2.8c-0.4-0.8-0.9-1.5-1.5-2c-0.6-0.5-1.3-0.8-1.9-0.9c-0.6-0.1-1.5-0.2-2.7-0.2l-6.1,0
				l0,19.4l4.3,0l0-7.7l2.1,0l2.6,7.7l4.7,0l-3.6-8.5C757.5,345.9,758.4,344.2,758.4,341.8z M751.7,344.6l-1.9,0l0-5.4l1.7,0
				c0.6,0,1.1,0.1,1.5,0.2c0.3,0.1,0.6,0.4,0.9,0.8c0.2,0.4,0.4,0.9,0.4,1.6C754.2,343.6,753.4,344.6,751.7,344.6z M774.4,341.8
				c0-1-0.2-2-0.6-2.8c-0.4-0.8-0.9-1.5-1.5-2c-0.6-0.5-1.3-0.8-1.9-0.9c-0.6-0.1-1.5-0.2-2.7-0.2l-6.1,0l0,19.4l4.3,0l0-7.7l2.1,0
				l2.6,7.7l4.7,0l-3.6-8.5C773.5,345.9,774.4,344.2,774.4,341.8z M767.7,344.5l-1.9,0l0-5.4l1.7,0c0.6,0,1.1,0.1,1.5,0.2
				c0.3,0.1,0.6,0.4,0.9,0.8c0.2,0.4,0.4,0.9,0.4,1.6C770.2,343.6,769.4,344.5,767.7,344.5z M777.5,335.9l0,19.4l4.3,0l0-19.4
				L777.5,335.9z M795.4,344.9c-0.7-0.5-1.7-0.9-3-1.4c-1.4-0.5-2.3-1-2.7-1.3c-0.4-0.3-0.7-0.8-0.7-1.3c0-0.5,0.2-0.9,0.5-1.2
				c0.4-0.4,0.9-0.5,1.5-0.5c1.3,0,2.3,0.8,2.8,2.4l3.5-1.4c-0.8-3-3-4.5-6.4-4.5c-1.9,0-3.4,0.6-4.5,1.7c-1.1,1.1-1.7,2.5-1.7,4.3
				c0,1,0.2,1.9,0.7,2.7c0.5,0.8,1.1,1.4,1.8,1.8c0.7,0.4,1.9,0.9,3.3,1.4c1.2,0.4,1.9,0.8,2.2,1.2c0.3,0.4,0.5,0.8,0.5,1.3
				c0,0.6-0.2,1.1-0.7,1.5c-0.5,0.4-1.1,0.6-1.8,0.6c-1.6,0-2.7-1-3.1-2.9l-3.7,1.1c1,3.6,3.2,5.3,6.8,5.3c2.1,0,3.8-0.6,5-1.7
				c1.3-1.2,1.9-2.6,1.9-4.5c0-1-0.2-1.9-0.7-2.7C796.7,345.9,796.1,345.3,795.4,344.9z M811,335.9l-12.2,0l0,3.6l3.9,0l0,15.8
				l4.3,0l0-15.8l4,0L811,335.9z M816.8,351.9l0-4.8l5.9,0l0-3.3l-5.9,0l0-4.5l7.6,0l0-3.3l-11.9,0l0,19.4l11.9,0l0-3.5L816.8,351.9
				z M839.4,341.7c0-1-0.2-2-0.6-2.8c-0.4-0.8-0.9-1.5-1.5-2c-0.6-0.5-1.3-0.8-1.9-0.9c-0.6-0.1-1.5-0.2-2.7-0.2l-6.1,0l0,19.4
				l4.3,0l0-7.7l2.1,0l2.6,7.7l4.7,0l-3.6-8.5C838.5,345.9,839.4,344.1,839.4,341.7z M832.7,344.5l-1.9,0l0-5.4l1.7,0
				c0.6,0,1.1,0.1,1.5,0.2c0.3,0.1,0.6,0.4,0.9,0.8c0.2,0.4,0.4,0.9,0.4,1.6C835.2,343.6,834.4,344.5,832.7,344.5z M854.1,346.7
				c-0.4-0.8-1-1.4-1.7-1.9c-0.7-0.5-1.7-0.9-3-1.4c-1.4-0.5-2.3-1-2.7-1.3c-0.4-0.3-0.7-0.8-0.7-1.3c0-0.5,0.2-0.9,0.6-1.2
				c0.4-0.4,0.9-0.5,1.5-0.5c1.3,0,2.3,0.8,2.8,2.4l3.5-1.4c-0.8-3-3-4.5-6.4-4.5c-1.9,0-3.4,0.6-4.5,1.7c-1.1,1.1-1.7,2.5-1.7,4.3
				c0,1,0.2,1.9,0.7,2.7c0.5,0.8,1.1,1.4,1.8,1.8c0.7,0.4,1.9,0.9,3.3,1.4c1.2,0.4,1.9,0.8,2.2,1.2c0.3,0.4,0.5,0.8,0.5,1.3
				c0,0.6-0.2,1.1-0.7,1.5c-0.5,0.4-1.1,0.6-1.8,0.6c-1.6,0-2.7-1-3.1-2.9l-3.7,1.1c1,3.6,3.2,5.3,6.8,5.3c2.1,0,3.8-0.6,5-1.7
				c1.3-1.2,1.9-2.6,1.9-4.5C854.8,348.4,854.6,347.5,854.1,346.7z"/>
		</g>
	</g>
</g>
<g id="Moyal_1_" class="st2">
	<g id="Moyal_4_">
		<g>
			<path style="fill:#FFFFFF;" d="M355.8,154.8l-17.6-62.6h-36.7v104.6h19.7v-85.3l24.8,85.3h16.1l25.3-85.3v85.3h23.7V92.2h-36.8L355.8,154.8
				z M618,92.2l-32.2,104.6h20.6l6.3-21.5h32.5l6.2,21.5h25.3L645.2,92.2H618z M618.3,156l10.7-36.7l10.6,36.7H618.3z M711.4,176.1
				V92.2h-23.9v104.6h63.8v-20.7H711.4z"/>
		</g>
	</g>
	<polygon style="fill:#FFFFFF;" points="575.4,92.2 556.3,131.8 537.1,92.2 509.8,92.2 541.4,152.8 541.4,196.8 564.9,196.8 564.9,152.8 
		596.5,92.2 	"/>
	<path style="fill:#FFFFFF;" d="M501.2,182.8c7.4-10.4,11-23.2,11-38.4c0-14-3.6-26.5-10.7-37.4c-7.1-10.9-17.7-16.4-31.7-16.4
		c-13.9,0-24.6,5.1-32.1,15.3c-7.5,10.2-11.3,23-11.3,38.2c0,15,3.7,27.8,11.1,38.4c7.4,10.6,17.9,15.9,31.4,15.9
		C483.1,198.4,493.8,193.2,501.2,182.8z M487.5,144.6c0,22.6-6,33.9-17.9,33.9c-12.3,0-18.5-11.3-18.5-33.9
		c0-22.6,6.2-33.9,18.5-33.9C481.5,110.6,487.5,121.9,487.5,144.6L487.5,144.6z"/>
</g>
<g id="Simon_1_" class="st2">
	<g id="Simon_3_">
		<g>
			<path style="fill:#FFFFFF;" d="M479.6,253.7c-6.2-2.2-15.9-4.4-29.2-6.5c-7.9-1.3-13.1-2.8-15.3-4.5c-2.3-1.7-3.4-3.9-3.4-6.4
				c0-6.3,6-9.4,18.1-9.4c11.3,0,18.7,4.1,22.2,12.4l26-7c-7.3-16.4-23.8-24.6-49.3-24.6c-14.4,0-25.9,3.2-34.3,9.6
				c-8.4,6.4-12.6,14.2-12.6,23.5c0,9.2,3.5,16.2,10.6,21c7.1,4.8,18.9,8.5,35.5,11.3c8.9,1.5,14.9,3.1,18,4.8
				c3.1,1.7,4.7,4.1,4.7,7.1c0,3-1.7,5.6-5.1,7.8c-3.4,2.2-8.6,3.3-15.6,3.3c-14.5,0-23.3-4.9-26.5-14.6l-28.3,5.1
				c3,9.6,9.2,16.8,18.6,21.7c9.4,4.9,20.8,7.3,34.1,7.3c17.8,0,31.3-3.4,40.3-10.3c9.1-6.9,13.6-15.1,13.6-24.5
				c0-6-2.1-11.5-6.3-16.4C491,259.4,485.8,255.9,479.6,253.7z M516.8,313.9h23.1V209.3h-23.1V313.9z M611.7,271.9l-17.3-62.6h-36
				v104.6h19.4v-85.3l24.3,85.3H618l24.8-85.3v85.3H666V209.3H630L611.7,271.9z M722.4,207.7c-13.6,0-24.1,5.1-31.5,15.3
				c-7.4,10.2-11,23-11,38.2c0,15,3.6,27.8,10.9,38.4s17.5,15.9,30.8,15.9c13.9,0,24.4-5.2,31.6-15.6c7.2-10.4,10.8-23.2,10.8-38.4
				c0-14-3.5-26.5-10.5-37.4C746.5,213.2,736.1,207.7,722.4,207.7z M722.2,295.5c-12.1,0-18.2-11.3-18.2-33.9
				c0-22.6,6.1-33.9,18.2-33.9c11.7,0,17.6,11.3,17.6,33.9C739.8,284.2,733.9,295.5,722.2,295.5z M836,209.3V264
				c0,1.6,0.1,3.9,0.4,7l-33.6-61.7h-24.9v104.6h18v-62.6c0-1.2-0.1-2.7-0.3-4.5c0-0.6-0.1-1.7-0.1-3.5l38.6,70.6h19.7V209.3H836z"
				/>
		</g>
	</g>
</g>
</svg>
