<svg xmlns="http://www.w3.org/2000/svg" viewBox="0 0 821.34 360.7"><defs><style>.cls-1{isolation:isolate;}.cls-2{fill:#0f4170;}.cls-3{fill:#ec6726;}.cls-4{fill:#1a4b7e;}</style></defs><title>Logo Medium _vektorisiert-TEST10yrs</title><g id="Avocats_à_la_Cour_Rechtsanwälte_Solicitors_Barristers" data-name="Avocats à la Cour │ Rechtsanwälte │ Solicitors │ Barristers" class="cls-1"><g id="Avocats_à_la_Cour_Rechtsanwälte_Solicitors_Barristers-2" data-name="Avocats à la Cour │ Rechtsanwälte │ Solicitors │ Barristers"><path class="cls-2" d="M76,326.51,69.9,347H74l1-4.23h5.75l1,4.24h4.59L80.53,326.5Zm-.13,12.75,2-8.4,2.07,8.4Zm17.34,2.87L90.07,326.5h-4.7L90.28,347l5,.11,5-20.62H96.45Zm15.24-16q-7.39,0-7.39,10.57c0,3.45.63,6.08,1.87,7.88a6.33,6.33,0,0,0,5.55,2.69q7.4,0,7.39-10.58,0-5.28-1.9-7.92A6.39,6.39,0,0,0,108.46,326.17Zm2.05,16.11a2.19,2.19,0,0,1-4.08-.06,15.91,15.91,0,0,1-.64-5.49,15.52,15.52,0,0,1,.64-5.51,2.2,2.2,0,0,1,4.08,0q.64,1.38.65,5.52C111.16,339.52,111,341.36,110.51,342.28Zm15.54,1.35a2.45,2.45,0,0,1-2.29-1.42c-.51-.94-.76-2.68-.76-5.2,0-2.82.27-4.73.82-5.71a2.51,2.51,0,0,1,2.24-1.47q2.67,0,2.84,4.56l4.1-.3c-.39-5.29-2.7-7.93-7-7.93a6.62,6.62,0,0,0-5.81,2.81c-1.31,1.88-2,4.47-2,7.79a13.37,13.37,0,0,0,2,7.73A6.57,6.57,0,0,0,126,347.3a6.35,6.35,0,0,0,5-2.1,8.72,8.72,0,0,0,2.1-5.43l-4.14-.25Q128.51,343.63,126.05,343.63Zm13.49-17.16L133.42,347h4.12l1-4.24h5.75l1,4.23h4.58l-5.84-20.5Zm-.14,12.75,2-8.4,2.06,8.4Zm22.07-12.76H148.75v3.85h4.06V347h4.49V330.3h4.17ZM174,335.88a17.07,17.07,0,0,0-3.11-1.45,14.11,14.11,0,0,1-2.85-1.36,1.67,1.67,0,0,1-.68-1.39,1.78,1.78,0,0,1,.58-1.32,2.14,2.14,0,0,1,1.56-.56c1.41,0,2.37.85,2.9,2.54l3.71-1.43q-1.32-4.79-6.64-4.78a6.41,6.41,0,0,0-4.69,1.77,6.13,6.13,0,0,0-1.77,4.53,5.57,5.57,0,0,0,2.65,4.85,22.23,22.23,0,0,0,3.5,1.52,6,6,0,0,1,2.33,1.25,2,2,0,0,1,.51,1.35,2,2,0,0,1-.72,1.6,2.86,2.86,0,0,1-1.89.61q-2.56,0-3.28-3.1l-3.91,1.13q1.55,5.64,7.09,5.63a7.37,7.37,0,0,0,5.26-1.84,6.18,6.18,0,0,0,2-4.71,5.85,5.85,0,0,0-.7-2.88A5.45,5.45,0,0,0,174,335.88Zm14.59-9.44L182.45,347h4.12l1-4.24h5.75l1,4.23h4.58l-5.84-20.5Zm-.14,12.75,2-8.4,2.07,8.4Zm4.86-15.31-5.1-4.71-1.67,2.51,5.51,3.46ZM223,326.42l-5.56,18.66v-2h-6.57V326.43h-4.49l0,20.51H221l1-4.24h5.75l1,4.23h4.59l-5.85-20.5Zm-.14,12.75,2-8.4,2.06,8.4Zm25,4.39a2.45,2.45,0,0,1-2.29-1.42c-.51-.94-.76-2.68-.77-5.2q0-4.24.83-5.71a2.51,2.51,0,0,1,2.23-1.48q2.68,0,2.85,4.57l4.09-.3q-.57-7.93-7-7.93a6.65,6.65,0,0,0-5.82,2.81c-1.3,1.87-1.95,4.47-1.95,7.78s.66,5.87,2,7.74a6.58,6.58,0,0,0,5.74,2.81,6.38,6.38,0,0,0,5-2.1,8.78,8.78,0,0,0,2.1-5.43l-4.14-.26Q250.22,343.57,247.77,343.56Zm16.31-17.48q-7.4,0-7.39,10.56,0,5.19,1.87,7.88a6.32,6.32,0,0,0,5.55,2.7q7.39,0,7.39-10.58c0-3.52-.64-6.16-1.9-7.92A6.39,6.39,0,0,0,264.08,326.08Zm2.05,16.1a2.14,2.14,0,0,1-2,1.37,2.11,2.11,0,0,1-2-1.43,15.35,15.35,0,0,1-.64-5.48q0-4.12.64-5.51a2.19,2.19,0,0,1,4.08,0c.43.91.64,2.75.65,5.52S266.56,341.27,266.13,342.18Zm18.61-15.8V338.1a25.75,25.75,0,0,1-.14,3.41,2.35,2.35,0,0,1-.81,1.47,2.67,2.67,0,0,1-1.78.56,3,3,0,0,1-1.74-.5,2.43,2.43,0,0,1-.94-1.48,17.91,17.91,0,0,1-.22-3.46V326.38h-4.48v11.72a17.54,17.54,0,0,0,.65,5.7,5,5,0,0,0,2.17,2.5,8.25,8.25,0,0,0,4.19.9,7.29,7.29,0,0,0,4.46-1.22,5.07,5.07,0,0,0,2-2.92,24.11,24.11,0,0,0,.4-5.15V326.38Zm21.06,6.12a7.16,7.16,0,0,0-.58-2.95,5,5,0,0,0-1.59-2.08,4.91,4.91,0,0,0-2-.93,18.57,18.57,0,0,0-2.86-.17h-6.41v20.5h4.48v-8.11h2.24l2.73,8.11h4.88l-3.76-9C304.85,336.87,305.8,335.06,305.8,332.5Zm-7,2.95h-2v-5.76h1.79a3.73,3.73,0,0,1,1.52.24,2.06,2.06,0,0,1,.91.88,3.26,3.26,0,0,1,.39,1.68C301.44,334.46,300.56,335.45,298.81,335.45ZM321,322.86l0,32h2.24v-32Zm31.57,9.61a7.36,7.36,0,0,0-.58-3,4.92,4.92,0,0,0-1.59-2.07,4.66,4.66,0,0,0-2-.93,16.45,16.45,0,0,0-2.87-.17h-6.41v20.51h4.49v-8.11h2.24l2.74,8.11h4.88l-3.76-9C351.65,336.84,352.61,335,352.61,332.47Zm-7,2.95h-2v-5.75h1.79a3.79,3.79,0,0,1,1.52.23,2.1,2.1,0,0,1,.9.88,3.26,3.26,0,0,1,.39,1.68C348.24,334.43,347.37,335.42,345.61,335.42Zm14.72,7.76v-5.05h6.16v-3.52h-6.16v-4.76h7.92v-3.52H355.83v20.51h12.41v-3.67Zm17.16.3a2.45,2.45,0,0,1-2.29-1.42,12.1,12.1,0,0,1-.77-5.2c0-2.82.28-4.73.83-5.71a2.5,2.5,0,0,1,2.23-1.47c1.79,0,2.73,1.52,2.85,4.56l4.09-.3q-.57-7.94-6.95-7.93a6.65,6.65,0,0,0-5.82,2.81c-1.3,1.88-2,4.47-2,7.79a13.22,13.22,0,0,0,2,7.73,6.55,6.55,0,0,0,5.74,2.81,6.38,6.38,0,0,0,5-2.1,8.78,8.78,0,0,0,2.1-5.43l-4.14-.26Q379.93,343.49,377.49,343.48Zm19-17.17v8.28h-4.9v-8.28h-4.49v20.51h4.49v-8.39h4.91v8.38H401l0-20.51Zm18.77,0H402.57v3.85h4.06v16.67h4.48V330.15h4.17Zm12.51,9.43a16.62,16.62,0,0,0-3.1-1.45,13.57,13.57,0,0,1-2.85-1.36,1.67,1.67,0,0,1-.68-1.39,1.78,1.78,0,0,1,.58-1.32,2.14,2.14,0,0,1,1.56-.56c1.4,0,2.37.84,2.9,2.54l3.7-1.43c-.87-3.19-3.09-4.78-6.64-4.78a6.33,6.33,0,0,0-4.68,1.77,6.13,6.13,0,0,0-1.77,4.53,5.56,5.56,0,0,0,.75,2.89,5.42,5.42,0,0,0,1.9,2,21.81,21.81,0,0,0,3.5,1.52,6.1,6.1,0,0,1,2.33,1.25,2,2,0,0,1,.51,1.35,2,2,0,0,1-.72,1.6,2.9,2.9,0,0,1-1.89.61q-2.56,0-3.28-3.1L416,341.49q1.54,5.64,7.09,5.63a7.37,7.37,0,0,0,5.27-1.84,6.17,6.17,0,0,0,2-4.71,5.84,5.84,0,0,0-.69-2.88A5.49,5.49,0,0,0,427.8,335.73Zm9.23-9.44-6.12,20.51H435l1-4.24h5.75l1,4.23h4.58l-5.84-20.5Zm-.14,12.76,2-8.41,2.07,8.4Zm22.24-12.77V339l-5.25-12.74h-5v20.51h3.47V332l6.23,14.83h4v-20.5Zm23.58,0-2.49,14.27-2.52-14.26h-4.11l-2.67,14.18-2.15-14.18h-4.58l4.43,20.61h4l2.77-14.26,2.73,14.26h4l4.37-20.62Zm9.07,0-6.12,20.51h4.12l1-4.24h5.75l1,4.23h4.58l-5.84-20.5ZM491.64,339l2-8.4,2.06,8.4Zm4.85-14.69a1.79,1.79,0,0,0,1.16-.45,1.42,1.42,0,0,0,.54-1.16,1.53,1.53,0,0,0-.5-1.15,1.64,1.64,0,0,0-1.21-.47,1.71,1.71,0,0,0-1.2.47,1.55,1.55,0,0,0-.5,1.15,1.47,1.47,0,0,0,.53,1.16A1.8,1.8,0,0,0,496.49,324.32Zm-6.22-.43a1.84,1.84,0,0,0,1.16.43,1.8,1.8,0,0,0,1.18-.45,1.47,1.47,0,0,0,.53-1.16,1.55,1.55,0,0,0-.5-1.15,1.73,1.73,0,0,0-1.21-.47,1.69,1.69,0,0,0-1.2.47,1.55,1.55,0,0,0-.5,1.15A1.46,1.46,0,0,0,490.27,323.89Zm18.05,19V326.25h-4.48v20.51H514.9v-3.84Zm18.3-16.67H513.9v3.85H518v16.66h4.48V330.09h4.17Zm6,16.84V338h6.15v-3.51h-6.16v-4.76h7.92v-3.51h-12.4v20.5h12.4v-3.67Zm22.13-20.36,0,32h2.24l0-32Zm28.48,12.92a17,17,0,0,0-3.11-1.46,13.58,13.58,0,0,1-2.85-1.36,1.64,1.64,0,0,1-.68-1.38,1.81,1.81,0,0,1,.58-1.32,2.1,2.1,0,0,1,1.56-.56c1.41,0,2.37.84,2.9,2.53l3.71-1.43q-1.32-4.77-6.64-4.77a6.35,6.35,0,0,0-4.69,1.77,6.13,6.13,0,0,0-1.77,4.53,5.68,5.68,0,0,0,.75,2.89,5.39,5.39,0,0,0,1.9,1.95,21.19,21.19,0,0,0,3.5,1.53,5.81,5.81,0,0,1,2.33,1.25,2.08,2.08,0,0,1-.21,2.94,2.81,2.81,0,0,1-1.89.61q-2.56,0-3.28-3.09l-3.91,1.13Q573,347,578.57,347a7.41,7.41,0,0,0,5.26-1.84,6.19,6.19,0,0,0,2-4.72,5.78,5.78,0,0,0-.7-2.87A5.37,5.37,0,0,0,583.28,335.64Zm11.94-9.76q-7.4,0-7.39,10.57,0,5.18,1.87,7.88a6.33,6.33,0,0,0,5.55,2.69q7.39,0,7.39-10.58c0-3.52-.64-6.16-1.9-7.92A6.39,6.39,0,0,0,595.22,325.88Zm2,16.1a2.19,2.19,0,0,1-4.08-.05,15.66,15.66,0,0,1-.64-5.49q0-4.12.64-5.51a2.2,2.2,0,0,1,4.08,0q.65,1.38.65,5.52C597.92,339.23,597.7,341.07,597.27,342Zm13,.87V326.19h-4.48V346.7h11.06v-3.85Zm8.54-16.67v20.51h4.49V326.18Zm15.39,17.15a2.44,2.44,0,0,1-2.28-1.42,12.1,12.1,0,0,1-.77-5.2c0-2.83.27-4.73.83-5.71a2.5,2.5,0,0,1,2.23-1.48q2.67,0,2.84,4.57l4.1-.3q-.57-7.94-7-7.93a6.62,6.62,0,0,0-5.81,2.81,16.34,16.34,0,0,0,0,15.52,6.6,6.6,0,0,0,5.75,2.81,6.41,6.41,0,0,0,5-2.1,8.73,8.73,0,0,0,2.11-5.44l-4.14-.25Q636.64,343.34,634.18,343.33Zm9.65-17.16v20.5h4.49l0-20.51Zm18.77,0H649.88V330H654v16.66h4.48V330h4.18Zm8.52-.32q-7.39,0-7.39,10.56c0,3.46.63,6.08,1.87,7.88a6.29,6.29,0,0,0,5.55,2.69q7.4,0,7.39-10.58,0-5.26-1.9-7.91A6.34,6.34,0,0,0,671.12,325.84Zm2,16.1a2.19,2.19,0,0,1-4.08-.06,15.63,15.63,0,0,1-.64-5.48c0-2.76.21-4.59.64-5.52a2.2,2.2,0,0,1,4.08,0q.65,1.38.65,5.53C673.82,339.18,673.61,341,673.17,341.94Zm22-9.67a7.37,7.37,0,0,0-.58-3,5.13,5.13,0,0,0-1.59-2.07,4.91,4.91,0,0,0-2-.93,18.72,18.72,0,0,0-2.87-.17h-6.41v20.51h4.49v-8.11h2.24l2.74,8.11H696l-3.76-9Q695.12,336.11,695.12,332.27Zm-7,2.94h-2v-5.76h1.79a4,4,0,0,1,1.52.23,2.13,2.13,0,0,1,.9.89,3.2,3.2,0,0,1,.39,1.67C690.75,334.23,689.88,335.21,688.12,335.21Zm20.59.35a16.62,16.62,0,0,0-3.1-1.45,13.58,13.58,0,0,1-2.85-1.36,1.67,1.67,0,0,1-.68-1.39,1.75,1.75,0,0,1,.58-1.31,2.11,2.11,0,0,1,1.56-.57c1.4,0,2.37.85,2.9,2.54l3.71-1.43c-.88-3.19-3.1-4.78-6.64-4.77a6.37,6.37,0,0,0-4.69,1.76,6.13,6.13,0,0,0-1.77,4.53,5.59,5.59,0,0,0,.75,2.9,5.47,5.47,0,0,0,1.9,1.95,21.81,21.81,0,0,0,3.5,1.52,6,6,0,0,1,2.33,1.25,2,2,0,0,1,.51,1.35,2,2,0,0,1-.72,1.6,2.9,2.9,0,0,1-1.89.61q-2.57,0-3.28-3.09l-3.91,1.12c1,3.76,3.39,5.64,7.08,5.63a7.37,7.37,0,0,0,5.27-1.84,6.14,6.14,0,0,0,2-4.71,5.84,5.84,0,0,0-.69-2.88A5.48,5.48,0,0,0,708.71,335.56ZM726,322.62l0,32h2.24l0-32Zm28.8,13.29q2.91-1,2.91-4.42a6,6,0,0,0-.84-3.29,3.9,3.9,0,0,0-2.1-1.71,13.17,13.17,0,0,0-3.7-.39h-7v20.5h7a12.91,12.91,0,0,0,3.93-.46,4.59,4.59,0,0,0,2.32-1.83,5.85,5.85,0,0,0,.94-3.38A4.87,4.87,0,0,0,754.81,335.91Zm-6.39-6.49h1.78a3,3,0,0,1,2.4.73,2.62,2.62,0,0,1,.56,1.66,3,3,0,0,1-.56,1.79c-.37.52-1.28.78-2.72.78h-1.45Zm2.21,13.68h-2.2v-5.4h2.2a3.67,3.67,0,0,1,2.32.61,2.55,2.55,0,0,1,.77,2.1C753.72,342.2,752.69,343.09,750.63,343.1Zm14.29-17-6.11,20.52h4.12l1-4.23h5.74l1,4.24h4.59l-5.84-20.51Zm-.13,12.76,2-8.4,2.07,8.4Zm25.64-6.64a7.32,7.32,0,0,0-.58-2.95,5,5,0,0,0-1.59-2.07,4.81,4.81,0,0,0-2-.94,18.72,18.72,0,0,0-2.87-.17H777v20.5h4.49v-8.11h2.24l2.74,8.11h4.88l-3.76-9C789.47,336.58,790.43,334.77,790.43,332.21Zm-7,3h-2v-5.75h1.79a3.76,3.76,0,0,1,1.52.24,2.1,2.1,0,0,1,.9.88,3.26,3.26,0,0,1,.39,1.68C786.06,334.17,785.19,335.16,783.43,335.16Zm23.68-3a7.16,7.16,0,0,0-.58-2.95,4.92,4.92,0,0,0-1.59-2.07,4.81,4.81,0,0,0-2-.94,18.72,18.72,0,0,0-2.87-.17h-6.41v20.51h4.49v-8.11h2.24l2.74,8.11H808l-3.76-9C806.15,336.57,807.11,334.76,807.11,332.2Zm-7,2.95h-2V329.4h1.79a3.73,3.73,0,0,1,1.52.24,2.1,2.1,0,0,1,.9.88,3.26,3.26,0,0,1,.39,1.68C802.75,334.16,801.87,335.15,800.12,335.15Zm10.21-9.08,0,20.51h4.48v-20.5Zm18.72,9.42a17.07,17.07,0,0,0-3.11-1.45,13.67,13.67,0,0,1-2.84-1.36,1.66,1.66,0,0,1-.69-1.39A1.82,1.82,0,0,1,823,330a2.14,2.14,0,0,1,1.56-.56c1.41,0,2.37.84,2.9,2.54l3.71-1.43q-1.32-4.78-6.64-4.78a6.35,6.35,0,0,0-4.69,1.77,6.13,6.13,0,0,0-1.77,4.53,5.76,5.76,0,0,0,.75,2.89,5.5,5.5,0,0,0,1.9,2,22.23,22.23,0,0,0,3.5,1.52,5.94,5.94,0,0,1,2.33,1.25,2,2,0,0,1,.51,1.35,2,2,0,0,1-.72,1.6,2.86,2.86,0,0,1-1.89.61c-1.7,0-2.8-1-3.28-3.1l-3.91,1.13q1.54,5.64,7.09,5.63A7.37,7.37,0,0,0,829.6,345a6.18,6.18,0,0,0,2-4.71,5.85,5.85,0,0,0-.7-2.88A5.37,5.37,0,0,0,829.05,335.49Zm16.38-9.44H832.71v3.85h4.07v16.66h4.48V329.9h4.17Zm6.05,16.83v-5h6.15v-3.51h-6.16v-4.76h7.92V326H847l0,20.5h12.4v-3.67ZM875,332.16a7.32,7.32,0,0,0-.57-3,5.12,5.12,0,0,0-1.6-2.08,4.79,4.79,0,0,0-2-.93A18.48,18.48,0,0,0,868,326h-6.41v20.5h4.48v-8.11h2.24l2.73,8.11h4.88l-3.75-9C874.09,336.53,875.05,334.72,875,332.16Zm-7,2.95h-2v-5.76h1.8a3.76,3.76,0,0,1,1.52.24,2.1,2.1,0,0,1,.9.88,3.26,3.26,0,0,1,.39,1.68C870.68,334.12,869.8,335.11,868.05,335.11Zm22.42,2.31a5.49,5.49,0,0,0-1.83-2,16.88,16.88,0,0,0-3.1-1.46,13.07,13.07,0,0,1-2.85-1.36,1.66,1.66,0,0,1-.68-1.39,1.77,1.77,0,0,1,.57-1.31,2.15,2.15,0,0,1,1.57-.57c1.4,0,2.37.85,2.9,2.54l3.7-1.43q-1.32-4.77-6.64-4.77a6.33,6.33,0,0,0-4.68,1.77,6.1,6.1,0,0,0-1.77,4.53,5.58,5.58,0,0,0,.75,2.89,5.39,5.39,0,0,0,1.9,2,20.94,20.94,0,0,0,3.5,1.52,6,6,0,0,1,2.33,1.26,2,2,0,0,1,.51,1.34,2,2,0,0,1-.73,1.6,2.81,2.81,0,0,1-1.89.61q-2.55,0-3.27-3.09l-3.92,1.13q1.54,5.63,7.09,5.63A7.4,7.4,0,0,0,889.2,345a6.14,6.14,0,0,0,2-4.71A5.78,5.78,0,0,0,890.47,337.42Z" transform="translate(-69.9 -68.97)"/></g></g><g id="Moyal" class="cls-1"><g id="Moyal-2" data-name="Moyal"><path class="cls-2" d="M369.88,136.74,351.45,70.67H313.14V181.06h20.62v-90l25.91,90h16.84l26.41-90v90H427.7V70.67H389.27Zm273.9-66.07L610.12,181.06h21.57l6.58-22.72h34l6.47,22.72h26.44L672.26,70.67Zm.39,67.29,11.22-38.74,11,38.74Zm97.2,21.27V70.67H716.44V181.06h66.71V159.23Z" transform="translate(-69.9 -68.97)"/></g><polygon class="cls-3" points="529.39 1.7 509.46 43.5 489.44 1.7 460.9 1.7 493.9 65.59 493.9 112.1 518.45 112.1 518.45 65.59 551.45 1.7 529.39 1.7"/><path class="cls-3" d="M521.72,166.26q11.53-16.5,11.54-40.52,0-22.23-11.19-39.5T488.9,69q-21.75,0-33.51,16.17T443.62,125.5q0,23.77,11.61,40.52t32.83,16.74Q510.19,182.76,521.72,166.26Zm-14.24-40.35q0,35.75-18.73,35.74-19.35,0-19.35-35.83t19.35-35.74q18.74,0,18.73,35.83Z" transform="translate(-69.9 -68.97)"/></g><g id="Simon" class="cls-1"><g id="Simon-2" data-name="Simon"><path class="cls-2" d="M499.23,241.13q-9.68-3.48-30.5-6.89-12.47-2-16-4.78a8.23,8.23,0,0,1-3.54-6.71q0-9.94,18.92-9.95,17.73,0,23.2,13.1l27.15-7.36q-11.48-26-51.55-26-22.64,0-35.84,10.11t-13.21,24.83q0,14.55,11.06,22.12T466,261.57q14,2.35,18.83,5t4.88,7.52q0,4.78-5.37,8.21T468,285.76q-22.71,0-27.69-15.45l-29.54,5.42q4.68,15.21,19.39,22.93t35.65,7.73q27.93,0,42.13-10.92t14.21-25.88a25.84,25.84,0,0,0-6.63-17.26A38,38,0,0,0,499.23,241.13Zm38.82,63.56h24.08V194.28H538.05Zm99.23-44.33-18.1-66.08H581.59V304.69h20.23v-90l25.43,90h16.53l25.93-90v90H694V194.28H656.31Zm115.57-67.78q-21.35,0-32.89,16.18t-11.55,40.36q0,23.78,11.4,40.52T752,306.39q21.74,0,33.05-16.5t11.31-40.53q0-22.25-11-39.51T752.85,192.58Zm-.15,92.7q-19,0-19-35.84t19-35.75q18.39,0,18.39,35.83T752.7,285.28Zm118.86-91V252c0,1.67.15,4.13.46,7.36L837,194.28h-26V304.69h18.8V238.6a46.62,46.62,0,0,0-.3-4.77q-.07-.89-.15-3.72l40.33,74.58h20.6V194.28Z" transform="translate(-69.9 -68.97)"/></g></g><g id="Ebene_2_Bild" data-name="Ebene 2 Bild"><path class="cls-4" d="M70.07,194.87c.63-.06,1.25-.18,1.88-.18H88.22c2.83,0,3.8-1,3.8-3.79q0-33.22,0-66.47a20.15,20.15,0,0,1,.28-2.29l.43-.07a5.75,5.75,0,0,1,.5,1q2,7.59,4.06,15.19,2.76,10.53,5.49,21.07t5.57,21.31q1.68,6.44,3.4,12.88a1.45,1.45,0,0,0,1.55,1.19q12.22,0,24.46,0c.76,0,1-.4,1.1-1,1.93-7.66,3.84-15.32,5.78-23,2.35-9.27,4.74-18.52,7.09-27.79,1.62-6.42,3.2-12.85,4.82-19.27a3.71,3.71,0,0,1,.64-1c.17.38.49.77.49,1.15,0,7.56,0,15.12,0,22.68v44.75a3.22,3.22,0,0,0,3.35,3.37H183l.18.28c-.7.8-1.34,1.67-2.1,2.41a29.52,29.52,0,0,0-8.52,16.37,28.13,28.13,0,0,0,4.88,21.55c4.17,6,9.95,9.84,16.52,12.61a94.59,94.59,0,0,0,18.62,5.73c4,.77,7.87,1.71,11.83,2.45,3.78.69,7.6,1.18,11.39,1.82,4.48.77,9,1.54,13.42,2.46a27.06,27.06,0,0,1,5.37,1.78,9.35,9.35,0,0,1,2.82,2.12,2.28,2.28,0,0,1-.3,3.63,13.86,13.86,0,0,1-4.51,2,67.9,67.9,0,0,1-7.8,1,37.82,37.82,0,0,1-5.42.24c-5.59-.29-11.12-1-16.28-3.42a17.53,17.53,0,0,1-9.29-9.78c-.38-1-.84-1.25-2-1-2.5.48-5.06.68-7.6,1-2.72.35-5.44.74-8.16,1.1-1.9.25-3.81.46-5.71.72-2.68.36-5.36.76-8,1.12-1.87.25-3.74.45-5.61.68s-3.89.47-5.83.72c-1.09.14-2.18.37-3.27.46a3.39,3.39,0,0,0-2.89,4.47,46.47,46.47,0,0,0,7.24,12.3A49.65,49.65,0,0,0,182.13,289a62.29,62.29,0,0,0,17.7,8.5c4.21,1.28,8.5,2.25,12.75,3.39a3.24,3.24,0,0,1,.85.62c-.3.2-.56.51-.88.57-2.84.61-5.68,1.21-8.53,1.73-1.77.31-3.57.54-5.36.7-14.23,1.27-28.5.36-42.74.52s-28.66,0-43,0H70.07Z" transform="translate(-69.9 -68.97)"/><path class="cls-4" d="M301.4,70.79V198.47a6.67,6.67,0,0,1-1-.63c-8-8-17.63-12.84-28.42-15.5a120.74,120.74,0,0,0-12.8-2.41c-4.2-.57-8.46-.78-12.71-1a81.06,81.06,0,0,0-8.39-.23q-6.5.26-13,.89a87.83,87.83,0,0,0-10.6,1.52c-4.24.94-8.4,2.28-12.58,3.51-1.88.55-3.72,1.26-5.74,1.95,0-.53-.07-.91-.07-1.29V73.42c0-.87,0-1.75.07-2.63Zm-42.09,73.05c-2.48-.21-4.86-.39-7.25-.61a21.32,21.32,0,0,1-3.85-.45c-1-.29-1.22,0-1.6.88-.8,1.76-1.78,3.44-2.75,5.12-.38.67-.9.73-1.53.11-1-1-2.19-2-3.28-2.94-.32-.28-.6-.6-.9-.89.35-.2.69-.42,1-.59s.81-.31,1.2-.5c4.29-2.05,7.2-4.87,6.62-10.16a7.44,7.44,0,0,0-3.26-5.44,16.24,16.24,0,0,0-8.53-2.86,31.43,31.43,0,0,0-12.4,1.16c-7.28,2.5-8.81,9.63-4.24,14.88.42.49.76,1,1.2,1.66l-.77.32a56.38,56.38,0,0,0-5.8,2.66,9.28,9.28,0,0,0-4,11.58c1.21,3.33,3.83,5.22,6.91,6.51a31.27,31.27,0,0,0,14.21,2.1c4-.25,7.89-.88,11.41-3a1.29,1.29,0,0,1,1.06.08,20.85,20.85,0,0,0,13.9,2.59c2.64-.4,2.64-.4,2.64-3.07v-5.5c-1.56,0-2.95.08-4.32,0a12.28,12.28,0,0,1-2.85-.66c-.79-.26-.86-.72-.15-1.27a17.84,17.84,0,0,0,1.94-1.74A25,25,0,0,0,259.31,143.84Z" transform="translate(-69.9 -68.97)"/><path class="cls-4" d="M293.41,232.32c-6.15-3.22-12.62-5-19.16-6.42-3.32-.74-6.71-1.23-10.06-1.86-3-.57-6.08-1.19-9.13-1.74s-6.41-1.06-9.61-1.63-6.16-1.14-9.24-1.73c-2-.39-4.09-.76-6.09-1.29a12.61,12.61,0,0,1-3-1.36c-2.31-1.33-2.26-3.9,0-5.23a17.85,17.85,0,0,1,7.45-2.13,53,53,0,0,1,7.45-.23c5.19.27,10.24,1.22,14.83,3.89a16.1,16.1,0,0,1,6.23,6.42,1.92,1.92,0,0,0,2.54,1.17c4.72-1.13,9.5-2,14.25-3.08,5.75-1.26,11.48-2.59,17.22-3.87a4,4,0,0,1,1.29-.06c.71.08,1,.36.74,1.21-1.77,5.61-3.47,11.24-5.21,16.86A8.23,8.23,0,0,1,293.41,232.32Z" transform="translate(-69.9 -68.97)"/><path class="cls-4" d="M140.46,79.69C139.36,84,138.36,88,137.34,92c-1.06,4.19-2.15,8.37-3.21,12.56q-2.43,9.63-4.84,19.27a1.78,1.78,0,0,1-.2.56,8.8,8.8,0,0,1-.63.74c-.21-.25-.53-.46-.61-.74-.71-2.53-1.39-5.06-2.06-7.59q-3.08-11.67-6.14-23.33c-.48-1.83-.23-2.57,1.29-3.64A103.31,103.31,0,0,1,138.68,80,7.52,7.52,0,0,1,140.46,79.69Z" transform="translate(-69.9 -68.97)"/><path class="cls-4" d="M234.68,156.64a24.29,24.29,0,0,1-3.23,1.22,9.1,9.1,0,0,1-6.34-.56c-1.86-1-2.64-2.52-2.37-4.88A4.72,4.72,0,0,1,226,149a1.06,1.06,0,0,1,.83.18c1.3,1.16,2.56,2.37,3.86,3.54s2.63,2.28,3.94,3.41Z" transform="translate(-69.9 -68.97)"/><path class="cls-4" d="M236,135.29a4.31,4.31,0,0,1-3.52,3.92,1,1,0,0,1-.65-.21,25,25,0,0,1-2.74-2.6,2.67,2.67,0,0,1-.5-2c.3-1.43,2.39-2.56,4-2.36A3.7,3.7,0,0,1,236,135.29Z" transform="translate(-69.9 -68.97)"/><rect class="cls-3" x="333.03" y="1.7" width="24.77" height="110.4"/><path class="cls-3" d="M82.81,380.6v48.32H71.64V380.6Z" transform="translate(-69.9 -68.97)"/><path class="cls-3" d="M108.56,429.67a15.71,15.71,0,0,1-13.68-7.05q-4.89-7-4.89-17.81,0-10.55,4.77-17.75t13.87-7.2q9,0,13.87,7.2t4.84,17.61q0,10.66-4.86,17.83T108.56,429.67ZM108.7,388a5.57,5.57,0,0,0-5.52,3.7q-1.56,3.7-1.56,13t1.63,13a5.57,5.57,0,0,0,5.42,3.65,5.64,5.64,0,0,0,5.42-3.58q1.69-3.57,1.69-12.6,0-9.92-1.65-13.53A5.61,5.61,0,0,0,108.7,388Z" transform="translate(-69.9 -68.97)"/><path class="cls-3" d="M186.93,380.6l-15,28v20.35H160.72V408.57l-15-28h13l9.12,18.3,9.07-18.3Z" transform="translate(-69.9 -68.97)"/><path class="cls-3" d="M224,389.8H201.22v9.92h17.9v9.09h-17.9v10.55H224v9.56H189.83V380.6H224Z" transform="translate(-69.9 -68.97)"/><path class="cls-3" d="M254.21,380.6l15,48.32h-12L254.19,419H238.73l-3,9.95h-9.82l15.32-48.32Zm-12.79,29.45h10.13l-5-16.95Z" transform="translate(-69.9 -68.97)"/><path class="cls-3" d="M285.61,409.77v19.15H274.33V380.6h21a26.33,26.33,0,0,1,9.33,1.36,12,12,0,0,1,5.84,5,14.82,14.82,0,0,1,2.31,8.1q0,8.7-8.3,12.49l8.82,21.36H301l-7.35-19.15Zm0-20.57v12.32h6.87a17.74,17.74,0,0,0,4.88-.48,5.35,5.35,0,0,0,2.72-2.12,6.29,6.29,0,0,0,1.19-3.77,5.88,5.88,0,0,0-1.19-3.61,5,5,0,0,0-2.6-2,24.72,24.72,0,0,0-5.25-.37Z" transform="translate(-69.9 -68.97)"/><path class="cls-3" d="M354.52,391.22,345,394.44q-1.92-5.73-8.15-5.73c-4.42,0-6.64,1.45-6.64,4.35a3.93,3.93,0,0,0,1.25,2.94c.82.8,2.7,1.5,5.61,2.09a55.61,55.61,0,0,1,10.71,3,13.86,13.86,0,0,1,5.72,4.9,13.06,13.06,0,0,1,2.32,7.56,15.16,15.16,0,0,1-5,11.33q-5,4.77-14.78,4.78a22.34,22.34,0,0,1-12.52-3.39,16,16,0,0,1-6.8-10l10.37-2.37q1.74,6.75,9.72,6.76,3.84,0,5.73-1.51a4.47,4.47,0,0,0,1.89-3.59,3.75,3.75,0,0,0-1.72-3.29q-1.71-1.17-6.61-2.2-9.14-1.91-13-5.22t-3.89-9.68a14.44,14.44,0,0,1,4.64-10.87q4.64-4.42,12.58-4.42Q350.49,379.86,354.52,391.22Z" transform="translate(-69.9 -68.97)"/><path class="cls-3" d="M399,429.67q-9.66,0-14.94-7.33t-5.29-17.74q0-10.58,5.36-17.66t15.26-7.08q10,0,15.1,7.56a30.15,30.15,0,0,1,5.09,17.29q0,10.52-5.25,17.73T399,429.67Zm.32-40.57q-8.82,0-8.81,15.64t8.81,15.69q8.54,0,8.53-15.65T399.34,389.1Z" transform="translate(-69.9 -68.97)"/><path class="cls-3" d="M460.94,390.16H438.56V401h17.69v9H438.56v18.9H426.93V380.6h34Z" transform="translate(-69.9 -68.97)"/><path class="cls-3" d="M518.78,389.8H496v9.92h17.9v9.09H496v10.55h22.77v9.56H484.62V380.6h34.16Z" transform="translate(-69.9 -68.97)"/><path class="cls-3" d="M561.87,380.6,548.81,403l14.77,25.88h-13L541,411.39l-9.6,17.53H520.81l14.82-25.76L522.49,380.6h13l7.74,14.68,8.14-14.68Z" transform="translate(-69.9 -68.97)"/><path class="cls-3" d="M605.24,398.58l-11.74.75q-.24-10.23-7.9-10.23-8.77,0-8.77,15.75,0,9.11,2.38,12.34a7.82,7.82,0,0,0,6.67,3.24q7,0,8.5-9.14l10.86.67q-1.05,8.69-6.4,13.19A21.23,21.23,0,0,1,570.33,423q-5.94-6.62-5.94-18.3,0-10.94,5.75-17.91t15.69-7Q603.07,379.86,605.24,398.58Z" transform="translate(-69.9 -68.97)"/><path class="cls-3" d="M645.84,389.8H623.07v9.92H641v9.09h-17.9v10.55h22.77v9.56H611.68V380.6h34.16Z" transform="translate(-69.9 -68.97)"/><path class="cls-3" d="M663.92,419.36h19v9.56H652.57V380.6h11.35Z" transform="translate(-69.9 -68.97)"/><path class="cls-3" d="M700,419.36h19v9.56H688.68V380.6H700Z" transform="translate(-69.9 -68.97)"/><path class="cls-3" d="M759,389.8H736.18v9.92h17.91v9.09H736.18v10.55H759v9.56H724.8V380.6H759Z" transform="translate(-69.9 -68.97)"/><path class="cls-3" d="M802.46,380.6v48.32h-9.55l-18.72-32.64c0,.83,0,1.37.07,1.63a17.6,17.6,0,0,1,.14,2.09v28.92h-8.72V380.6h12.07L794,409.1c-.14-1.42-.21-2.49-.21-3.22V380.6Z" transform="translate(-69.9 -68.97)"/><path class="cls-3" d="M850.63,398.58l-11.73.75q-.25-10.23-7.9-10.23-8.78,0-8.78,15.75,0,9.11,2.39,12.34a7.8,7.8,0,0,0,6.67,3.24q6.94,0,8.49-9.14l10.86.67q-1.05,8.69-6.39,13.19A21.25,21.25,0,0,1,815.72,423q-5.93-6.62-5.93-18.3,0-10.94,5.74-17.91t15.7-7Q848.47,379.86,850.63,398.58Z" transform="translate(-69.9 -68.97)"/><path class="cls-3" d="M891.23,389.8H868.46v9.92h17.91v9.09H868.46v10.55h22.77v9.56H857.08V380.6h34.15Z" transform="translate(-69.9 -68.97)"/></g></svg>